<?xml version="1.0" encoding="UTF-8"?>
<svg id="svg1" width="1e3" height="600" version="1.1" viewBox="0 0 264.58 158.75" xmlns="http://www.w3.org/2000/svg" xmlns:xlink="http://www.w3.org/1999/xlink">
 <defs id="defs1">
  <linearGradient id="linearGradient39" x1="249.55" x2="-10.804" y1="191.01" y2="130.91" gradientTransform="translate(11.728 -78.506)" gradientUnits="userSpaceOnUse" xlink:href="#linearGradient12"/>
  <linearGradient id="linearGradient12">
   <stop id="stop12" style="stop-color:#92c5df" offset="0"/>
   <stop id="stop13" style="stop-color:#92c5e1;stop-opacity:.19784" offset="1"/>
  </linearGradient>
  <linearGradient id="linearGradient87" x1="249.55" x2="63.583" y1="191.01" y2="244.33" gradientTransform="translate(10.79 -97.233)" gradientUnits="userSpaceOnUse" xlink:href="#linearGradient15"/>
  <linearGradient id="linearGradient15">
   <stop id="stop14" style="stop-color:#296ca1" offset="0"/>
   <stop id="stop15" style="stop-color:#92c5e1;stop-opacity:.19784" offset="1"/>
  </linearGradient>
  <linearGradient id="linearGradient60" x1="249.55" x2="-10.804" y1="191.01" y2="130.91" gradientTransform="matrix(.67008 -.0098204 .0098204 .67008 92.314 -16.91)" gradientUnits="userSpaceOnUse" xlink:href="#linearGradient15"/>
  <linearGradient id="linearGradient41" x1="249.55" x2="-10.804" y1="191.01" y2="130.91" gradientTransform="translate(11.014 -91.739)" gradientUnits="userSpaceOnUse">
   <stop id="stop46" style="stop-color:#296ca1" offset="0"/>
   <stop id="stop47" style="stop-color:#92c5e1;stop-opacity:.035971" offset="1"/>
  </linearGradient>
  <linearGradient id="linearGradient40" x1="249.55" x2="159.16" y1="191.01" y2="186.5" gradientTransform="matrix(.83608 -.26447 -.0041922 1.2868 53.157 -115.4)" gradientUnits="userSpaceOnUse">
   <stop id="stop94" style="stop-color:#699330;stop-opacity:.14737" offset="0"/>
   <stop id="stop95" style="stop-color:#559c3e;stop-opacity:.79474" offset="1"/>
  </linearGradient>
  <linearGradient id="linearGradient85" x1="285.47" x2="190.72" y1="143.06" y2="180.32" gradientTransform="matrix(.93758 -.20249 .30628 .61987 -12.92 22.241)" gradientUnits="userSpaceOnUse">
   <stop id="stop85" style="stop-color:#096ec1" offset="0"/>
   <stop id="stop86" style="stop-color:#4ba2cc;stop-opacity:.48421" offset="1"/>
  </linearGradient>
  <linearGradient id="linearGradient91" x1="394.38" x2="525.37" y1="99.875" y2="99.875" gradientTransform="matrix(1.0412 0 0 1.0412 -284.91 -8.3098)" gradientUnits="userSpaceOnUse">
   <stop id="stop90" style="stop-color:#4a8b83;stop-opacity:.47451" offset="0"/>
   <stop id="stop91" style="stop-color:#18706a;stop-opacity:.89804" offset="1"/>
  </linearGradient>
  <linearGradient id="linearGradient81" x1="249.55" x2="-10.804" y1="191.01" y2="130.91" gradientTransform="matrix(.83768 0 0 .83768 26.95 -52.947)" gradientUnits="userSpaceOnUse">
   <stop id="stop96" style="stop-color:#1c736b;stop-opacity:.87843" offset="0"/>
   <stop id="stop97" style="stop-color:#91c4e0;stop-opacity:.2902" offset="1"/>
  </linearGradient>
  <linearGradient id="linearGradient42" x1="249.55" x2="-10.804" y1="191.01" y2="130.91" gradientTransform="matrix(.67855 0 0 .77385 91.651 -59.049)" gradientUnits="userSpaceOnUse">
   <stop id="stop92" style="stop-color:#689cc8;stop-opacity:.99608" offset="0"/>
   <stop id="stop93" style="stop-color:#bee7b4;stop-opacity:.64737" offset="1"/>
  </linearGradient>
  <linearGradient id="linearGradient43" x1="369.3" x2="524.63" y1="105.68" y2="105.68" gradientTransform="matrix(1.0957 0 0 .99959 -312.97 -13.81)" gradientUnits="userSpaceOnUse">
   <stop id="stop43" style="stop-color:#5d7f07" offset="0"/>
  </linearGradient>
  <linearGradient id="linearGradient56" x1="249.55" x2="-10.804" y1="191.01" y2="130.91" gradientTransform="matrix(.69629 0 0 .4516 67.287 19.245)" gradientUnits="userSpaceOnUse" xlink:href="#linearGradient57"/>
  <linearGradient id="linearGradient57">
   <stop id="stop56" style="stop-color:#c7e3ec" offset="0"/>
   <stop id="stop57" style="stop-color:#aed7e8;stop-opacity:.39568" offset="1"/>
  </linearGradient>
  <linearGradient id="linearGradient58" x1="249.55" x2="-10.804" y1="191.01" y2="130.91" gradientTransform="matrix(.20542 -.19234 .15634 .16697 166.39 114.15)" gradientUnits="userSpaceOnUse" xlink:href="#linearGradient57"/>
  <linearGradient id="linearGradient55" x1="249.55" x2="-10.804" y1="191.01" y2="130.91" gradientTransform="matrix(.77821 0 0 .62554 31.568 -9.7377)" gradientUnits="userSpaceOnUse" xlink:href="#linearGradient12"/>
  <linearGradient id="linearGradient84" x1="9.0506" x2="-10.804" y1="302.12" y2="130.91" gradientTransform="matrix(.35903 0 0 .35903 172.7 40.296)" gradientUnits="userSpaceOnUse" xlink:href="#linearGradient15"/>
  <linearGradient id="linearGradient70" x1="9.0506" x2="-10.804" y1="302.12" y2="130.91" gradientTransform="matrix(.29765 .049363 -.049363 .29765 153.97 36.716)" gradientUnits="userSpaceOnUse" xlink:href="#linearGradient15"/>
  <linearGradient id="linearGradient72" x1="9.0506" x2="-10.804" y1="302.12" y2="130.91" gradientTransform="matrix(.30172 0 0 .30172 146.1 64.182)" gradientUnits="userSpaceOnUse" xlink:href="#linearGradient15"/>
  <linearGradient id="linearGradient69" x1="9.0506" x2="-10.804" y1="302.12" y2="130.91" gradientTransform="matrix(.30172 0 0 .30172 172.48 50.328)" gradientUnits="userSpaceOnUse" xlink:href="#linearGradient15"/>
  <linearGradient id="linearGradient68" x1="9.0506" x2="-10.804" y1="302.12" y2="130.91" gradientTransform="matrix(.30172 0 0 .30172 186.48 42.939)" gradientUnits="userSpaceOnUse" xlink:href="#linearGradient15"/>
  <linearGradient id="linearGradient66" x1="9.0506" x2="-10.804" y1="302.12" y2="130.91" gradientTransform="matrix(.30172 0 0 .30172 191.12 34.166)" gradientUnits="userSpaceOnUse" xlink:href="#linearGradient15"/>
  <linearGradient id="linearGradient63" x1="249.55" x2="200.14" y1="191.01" y2="224.12" gradientTransform="matrix(.21466 0 0 .21466 206.61 69.526)" gradientUnits="userSpaceOnUse" xlink:href="#linearGradient15"/>
  <linearGradient id="linearGradient64" x1="249.55" x2="-10.804" y1="191.01" y2="130.91" gradientTransform="matrix(.54283 0 0 .54283 120.38 -4.4888)" gradientUnits="userSpaceOnUse" xlink:href="#linearGradient19"/>
  <linearGradient id="linearGradient19">
   <stop id="stop25" style="stop-color:#689cc8;stop-opacity:.99608" offset="0"/>
   <stop id="stop26" style="stop-color:#529d3f;stop-opacity:.5098" offset="1"/>
  </linearGradient>
  <linearGradient id="linearGradient44" x1="249.55" x2="-10.804" y1="191.01" y2="130.91" gradientTransform="matrix(.69668 .22872 -.077913 .27979 48.624 14.073)" gradientUnits="userSpaceOnUse">
   <stop id="stop44" style="stop-color:#689cc8;stop-opacity:.99608" offset="0"/>
   <stop id="stop45" style="stop-color:#529d3f;stop-opacity:.20863" offset="1"/>
  </linearGradient>
  <linearGradient id="linearGradient59" x1="249.55" x2="-10.804" y1="191.01" y2="130.91" gradientTransform="matrix(.54283 0 0 .54283 125.15 6.1748)" gradientUnits="userSpaceOnUse" xlink:href="#linearGradient15"/>
  <linearGradient id="linearGradient71" x1="9.0506" x2="-10.804" y1="302.12" y2="130.91" gradientTransform="matrix(.373 .10477 -.10477 .373 156.97 24.18)" gradientUnits="userSpaceOnUse" xlink:href="#linearGradient15"/>
  <linearGradient id="linearGradient54" x1="249.55" x2="-10.804" y1="191.01" y2="130.91" gradientTransform="matrix(.83442 0 0 .54217 52.967 8.1327)" gradientUnits="userSpaceOnUse" xlink:href="#linearGradient19"/>
  <linearGradient id="linearGradient67" x1="9.0506" x2="-10.804" y1="302.12" y2="130.91" gradientTransform="matrix(.48222 .048583 -.048583 .48222 149.06 9.8163)" gradientUnits="userSpaceOnUse" xlink:href="#linearGradient15"/>
  <linearGradient id="linearGradient46" x1="238" x2="-10.804" y1="245.43" y2="130.91" gradientTransform="matrix(.49578 .24146 -.079536 .56359 22.151 -57.351)" gradientUnits="userSpaceOnUse" xlink:href="#linearGradient49"/>
  <linearGradient id="linearGradient49">
   <stop id="stop48" style="stop-color:#79aacd;stop-opacity:.69424" offset="0"/>
   <stop id="stop49" style="stop-color:#52a2e7;stop-opacity:0" offset="1"/>
  </linearGradient>
  <linearGradient id="linearGradient51" x1="278.88" x2="392.32" y1="72.998" y2="72.998" gradientTransform="translate(-263.27 -7.5039)" gradientUnits="userSpaceOnUse" xlink:href="#linearGradient50"/>
  <linearGradient id="linearGradient50">
   <stop id="stop50" style="stop-color:#ffffff;stop-opacity:0" offset="0"/>
   <stop id="stop51" style="stop-color:#ffffff" offset="1"/>
  </linearGradient>
  <linearGradient id="linearGradient52" x1="238" x2="-10.804" y1="245.43" y2="130.91" gradientTransform="matrix(.55041 -.033969 .2083 .52969 40.519 23.174)" gradientUnits="userSpaceOnUse" xlink:href="#linearGradient49"/>
  <linearGradient id="linearGradient53" x1="278.88" x2="392.32" y1="72.998" y2="72.998" gradientTransform="rotate(-29.5 301.65 451.77)" gradientUnits="userSpaceOnUse" xlink:href="#linearGradient50"/>
  <linearGradient id="linearGradient82" x1="9.0506" x2="-10.804" y1="302.12" y2="130.91" gradientTransform="matrix(.89981 .23098 -.3446 .85357 95.177 -88.065)" gradientUnits="userSpaceOnUse">
   <stop id="stop82" style="stop-color:#1dada7" offset="0"/>
   <stop id="stop83" style="stop-color:#289696;stop-opacity:.38421" offset="1"/>
  </linearGradient>
  <linearGradient id="linearGradient61" x1="249.55" x2="-10.804" y1="191.01" y2="130.91" gradientTransform="translate(11.492 -94.362)" gradientUnits="userSpaceOnUse" xlink:href="#linearGradient15"/>
  <linearGradient id="linearGradient73" x1="9.0506" x2="-10.804" y1="302.12" y2="130.91" gradientTransform="matrix(.12932 .0033934 -.0033934 .12932 225.73 86.221)" gradientUnits="userSpaceOnUse">
   <stop id="stop73" style="stop-color:#296ca1;stop-opacity:.72302" offset="0"/>
   <stop id="stop74" style="stop-color:#92c5e1;stop-opacity:.19784" offset="1"/>
  </linearGradient>
  <linearGradient id="linearGradient75" x1="9.0506" x2="-10.804" y1="302.12" y2="130.91" gradientTransform="matrix(.46351 .051712 -.051712 .46351 162.2 23.794)" gradientUnits="userSpaceOnUse" xlink:href="#linearGradient15"/>
  <linearGradient id="linearGradient76" x1="9.0506" x2="-10.804" y1="302.12" y2="130.91" gradientTransform="matrix(.55528 .28716 -.28716 .55528 90.554 -23.06)" gradientUnits="userSpaceOnUse" xlink:href="#linearGradient15"/>
  <linearGradient id="linearGradient77" x1="9.0506" x2="-10.804" y1="302.12" y2="130.91" gradientTransform="matrix(.37234 .043749 -.043749 .37234 162.35 34.237)" gradientUnits="userSpaceOnUse" xlink:href="#linearGradient15"/>
  <linearGradient id="linearGradient78" x1="156.01" x2="171.9" y1="188.52" y2="188.52" gradientTransform="matrix(1.4102 0 0 .70912 4.0555 -12.972)" gradientUnits="userSpaceOnUse">
   <stop id="stop65" style="stop-color:#296ca1" offset="0"/>
   <stop id="stop66" style="stop-color:#92c5e1;stop-opacity:.19784" offset="1"/>
  </linearGradient>
  <linearGradient id="linearGradient79" x1="9.0506" x2="-10.804" y1="302.12" y2="130.91" gradientTransform="matrix(.24202 -.0006341 .0006341 .24202 189.53 84.705)" gradientUnits="userSpaceOnUse" xlink:href="#linearGradient15"/>
  <linearGradient id="linearGradient80" x1="88.07" x2="120.49" y1="191.65" y2="191.65" gradientTransform="matrix(1.6542 0 0 .60454 4.0555 -12.972)" gradientUnits="userSpaceOnUse">
   <stop id="stop79" style="stop-color:#296ca1" offset="0"/>
   <stop id="stop80" style="stop-color:#92c5e1;stop-opacity:.19784" offset="1"/>
  </linearGradient>
 </defs>
 <g id="banda-baja-rectangulos-layer-5">
  <path id="rect6-7-8" d="m53.48 22.493s50.058 125.32 208.66 67.839c0.4001 39.429-0.0607 0.021 0.47146 39.403-182.76 63.714-244.93-91.761-244.93-91.761z" style="fill-opacity:.84706;fill:url(#linearGradient39);opacity:.7;stroke-width:.54265"/>
  <path id="rect6-7-0-95" d="m51.671 35.732s50.929 93.351 209.53 35.875c0.4001 39.429-0.0607 0.021 0.47146 39.403-182.76 63.714-223.12-69.36-223.12-69.36z" style="fill-opacity:.84706;fill:url(#linearGradient87);opacity:.7;stroke-width:.54265"/>
  <path id="rect6-7-0-9" d="m134.2 90.227s21.858 43.61 127.57 3.5392c0.65531 26.416-0.0405 0.0147 0.70287 26.398-121.84 44.488-152.1-19.212-152.1-19.212z" style="fill-opacity:.84706;fill:url(#linearGradient60);opacity:.7;stroke-width:.36366"/>
  <path id="rect6-7-0-4" d="m52.766 9.2604s50.058 125.32 208.66 67.839c0.4001 39.429-0.0607 0.021 0.47146 39.403-182.76 63.714-244.93-91.761-244.93-91.761z" style="fill-opacity:.84706;fill:url(#linearGradient41);opacity:.7;stroke-width:.54265"/>
  <path id="rect6-7-0-6-0" d="m138.5 71.683s60.653 32.393 123.31-26.916c0.16921 50.63 0.13256-0.1557 0.41218 50.379-61.62 49.967-139.34 10.2-139.34 10.2z" style="fill-opacity:.84706;fill:url(#linearGradient40);opacity:.7;stroke-width:.56256"/>
  <path id="rect6-7-0-3-8-91-3" d="m175.38 93.514s47.859 1.1706 86.516-24.851c-1.7813 22.206 9e-3 0.21597-1.6999 22.119-37.208 21.693-80.751 21.278-80.751 21.278z" style="fill-opacity:.84706;fill:url(#linearGradient85);opacity:.7;stroke-width:.4352;stroke:#ffffff"/>
  <path id="rect6-7-0-6-0-8" d="m138.68 84.608s60.198 26.624 123.01-23.091c0.16961 42.439 0.13286 4.8833 0.41315 47.243-61.766 41.884-136.38 15.56-136.38 15.56z" style="fill:url(#linearGradient91);opacity:.7;stroke-width:.51566"/>
  <path id="rect6-7-0-6-9-34" d="m51.635 35.599s52.222 101.03 185.08 52.888c0.33515 33.029-0.0508 0.0176 0.39493 33.007-153.1 53.372-205.17-76.866-205.17-76.866z" style="fill-opacity:.84706;fill:url(#linearGradient81);opacity:.7;stroke-width:.45457"/>
  <path id="rect6-7-0-6-9-0" d="m124.99 74.977s71.248 34.184 136.57-13.422c0.27149 30.512-0.0412 5.8371 0.31991 36.313-92.959 39.253-153.17 8.0573-153.17 8.0573z" style="fill-opacity:.84706;fill:url(#linearGradient42);opacity:.7;stroke-width:.39351;stroke:url(#linearGradient43)"/>
  <path id="rect6-7-6-6-3" d="m92.997 67.974s38.216 53.476 148.65 27.519c0.27858 17.806-0.0422 9e-3 0.32826 17.794-127.26 28.774-159.54-36.672-159.54-36.672z" style="fill-opacity:.84706;fill:url(#linearGradient56);opacity:.7;stroke-width:.30429;stroke:#ffffff"/>
  <path id="rect6-7-6-6-3-3" d="m208.65 113.56s28.396 6.5606 44.563-8.1258c0.5626 9.0309-0.163 0.25789 0.28588 8.6606-19.551 13.782-49.215 5.8914-49.215 5.8914z" style="fill-opacity:.84706;fill:url(#linearGradient58);opacity:.7;stroke-width:.13767;stroke:#ffffff"/>
  <path id="rect6-7-6-6-5" d="m64.06 53.442s38.956 78.39 162.38 42.437c0.31137 24.664-0.0472 0.0132 0.36689 24.648-142.23 39.856-190.6-57.4-190.6-57.4z" style="fill-opacity:.84706;fill:url(#linearGradient55);opacity:.7"/>
  <path id="rect6-7-0-3-8-91-7" d="m225.66 98.88s13.637 5.6585 31.461-3.5904c-1.6939 11.733-0.0606 0.0189-1.6473 11.748-16.583 7.1473-31.578 2.0085-31.578 2.0085z" style="fill-opacity:.84706;fill:url(#linearGradient84);opacity:.7;stroke-width:.19482;stroke:#ffffff"/>
  <path id="rect6-7-0-3-8-91-1-18" d="m187.73 95.972s13.111 3e-3 26.393-3.4818c1.2355 6.0567 0.0357 0.23309 1.2775 6.2288-12.372 3.2057-27.239 3.4393-27.239 3.4393z" style="fill-opacity:.84706;fill:url(#linearGradient70);opacity:.7;stroke-width:.16373;stroke:#ffffff"/>
  <path id="rect6-7-0-3-8-91-1-8" d="m189.1 117.12s12.935-2.1419 25.468-7.7529c2.2097 5.773 0.0736 0.22402 2.2793 5.9358-11.681 5.1867-26.31 7.8494-26.31 7.8494z" style="fill-opacity:.84706;fill:url(#linearGradient72);opacity:.7;stroke-width:.16373;stroke:#ffffff"/>
  <path id="rect6-7-0-3-8-91-1-34" d="m215.48 103.26s12.935-2.1419 25.468-7.7529c2.2097 5.7729 0.0736 0.22402 2.2793 5.9358-11.681 5.1867-26.31 7.8494-26.31 7.8494z" style="fill-opacity:.84706;fill:url(#linearGradient69);opacity:.7;stroke-width:.16373;stroke:#ffffff"/>
  <path id="rect6-7-0-3-8-91-1-1" d="m229.48 95.874s12.935-2.1419 25.468-7.7529c2.2097 5.773 0.0736 0.22402 2.2793 5.9358-11.681 5.1867-26.31 7.8494-26.31 7.8494z" style="fill-opacity:.84706;fill:url(#linearGradient68);opacity:.7;stroke-width:.16373;stroke:#ffffff"/>
  <path id="rect6-7-0-3-8-91-1-3" d="m240.42 86.778s8.6445-1.7273 19.167-7.431c-1.4235 9.8601-0.22841 1.436-1.0293 8.4524-8.1758 4.2926-18.494 7.2401-18.494 7.2401z" style="fill-opacity:.84706;fill:url(#linearGradient66);opacity:.7;stroke-width:.16373;stroke:#ffffff"/>
  <path id="rect6-7-0-3-8-91-5" d="m226.98 109.41s13.048 8.8646 33.387-3.6377c0.0859 8.4637-0.013 5e-3 0.1012 8.4581-15.988 10.607-41.173-1.4972-41.173-1.4972z" style="fill-opacity:.84706;fill:url(#linearGradient63);opacity:.7;stroke-width:.11648;stroke:#ffffff"/>
  <path id="rect6-7-0-6-9-3-3-1" d="m118.81 82.647s51.405 35.715 137.5 4.5154c0.21718 21.403-0.0329 0.0114 0.25591 21.389-99.209 34.586-151.11-14.299-151.11-14.299z" style="fill-opacity:.84706;fill:url(#linearGradient64);opacity:.7;stroke-width:.29457;stroke:#ffffff"/>
  <path id="rect6-7-0-6-9-3-3-4" d="m47.745 11.667s38.572 87.639 124.74 89.091c-23.557 13.199-0.96681 0.0863-2.7416 11.132-82.466-1.12-131.54-96.322-131.54-96.322z" style="fill-opacity:.84706;fill:url(#linearGradient44);opacity:.7"/>
  <path id="rect6-7-0-3-8-9-6" d="m98.4 80.655s76.588 48.371 162.68 17.171c0.21719 21.403-0.0329 0.0114 0.25592 21.389-99.209 34.586-182.37-30.157-182.37-30.157z" style="fill-opacity:.84706;fill:url(#linearGradient59);opacity:.7;stroke-width:.29457;stroke:#1093d6"/>
  <path id="rect6-7-0-3-8-91-1-4" d="m191.75 104.55s16.734 1.8435 34.176-0.74119c0.72717 7.9041 0.0132 0.30251 0.75664 8.1297-16.241 2.356-35.251 0.56817-35.251 0.56817z" style="fill-opacity:.84706;fill:url(#linearGradient71);opacity:.7;stroke-width:.21024;stroke:#ffffff"/>
  <path id="rect6-7-0-6-9-3-3-9-8-7" d="m95.376 71.902s34.199 55.757 166.54 24.596c0.33384 21.377-0.0506 3.1864 0.39337 24.538-152.5 34.544-190.42-30.58-190.42-30.58z" style="fill-opacity:.84706;fill:url(#linearGradient54);opacity:.7;stroke-width:.36499;stroke:#99d309"/>
  <path id="rect6-7-0-3-8-91-1-9" d="m209.26 101.34s21.018-1.3405 41.952-8.2902c2.6021 9.5824 0.0815 0.36989 2.6871 9.8539-19.504 6.4088-43.313 8.309-43.313 8.309z" style="fill-opacity:.84706;fill:url(#linearGradient67);opacity:.7;stroke-width:.263;stroke:#ffffff"/>
  <path id="rect6-7-86" d="m34.817 9.6532s22.535 70.141 95.68 104.84c-0.47751 0.97568-5.7508 12.604-6.4379 13.877-70.536-33.82-108.22-118.64-108.22-118.64z" style="fill-opacity:.84706;fill:url(#linearGradient46);opacity:.7;stroke-width:.29654;stroke:url(#linearGradient51)"/>
  <path id="rect6-7-86-8" d="m84.537 75.254s49.233 44.597 129.98 38.782c0.0651 1.0843 1.2012 13.802 1.2299 15.248-78.045 5.2973-147.69-44.613-147.69-44.613z" style="fill-opacity:.84706;fill:url(#linearGradient52);opacity:.7;stroke-width:.29654;stroke:url(#linearGradient53)"/>
  <path id="rect6-7-0-3-8-91-1-25" d="m162.96 94.605s41.021 3.8428 84.806-2.4362c-3e-3 18.023-0.0366 0.69011 0.0181 18.537-40.759 5.7309-87.427 2.0648-87.427 2.0648z" style="fill-opacity:.84706;fill:url(#linearGradient82);opacity:.7;stroke-opacity:.81203;stroke-width:.4996;stroke:#007f62"/>
  <path id="rect6-7-0-7" d="m85.083 65.678s60.727 70.285 175.53 11.124c0.4001 39.429 1.2308-2.3037 1.763 37.078-115.38 47.991-197.19-30.553-197.19-30.553z" style="fill-opacity:.84706;fill:url(#linearGradient61);opacity:.7;stroke-width:.54265"/>
  <path id="rect6-7-0-3-8-91-1-2" d="m243.56 109.39s5.5678-0.77253 11.002-3.0364c0.88214 2.4991 0.029 0.0968 0.91013 2.5697-5.0646 2.0916-11.364 3.0683-11.364 3.0683z" style="fill-opacity:.84706;fill:url(#linearGradient73);opacity:.7;stroke-opacity:.38418;stroke-width:.070197;stroke:#ffffff"/>
  <path id="rect6-7-0-3-8-91-1-19" d="m219.19 112.48s20.238-1.0735 40.453-7.5453c2.4052 9.2473 0.0747 0.35675 2.4842 9.5094-18.833 5.9659-41.763 7.5493-41.763 7.5493z" style="fill-opacity:.84706;fill:url(#linearGradient75);opacity:.7;stroke-opacity:.16949;stroke-width:.25308;stroke:#ffffff"/>
  <path id="rect6-7-0-3-8-91-1-45" d="m130.15 115.38s15.004 8.2684 43.41 9.8704c-1.4278 12.727-0.0777 0.48234-1.4547 13.093-26.433-1.5718-47.862-10.093-47.862-10.093z" style="fill-opacity:.84706;fill:url(#linearGradient76);opacity:.7;stroke-opacity:.4096;stroke-width:.33923;stroke:#ffffff"/>
  <path id="rect6-7-0-3-8-91-1-40" d="m207.74 105.8s16.272-0.76731 32.552-5.8746c1.8898 7.4445 0.0582 0.28716 1.952 7.6556-15.167 4.7069-33.605 5.8716-33.605 5.8716z" style="fill-opacity:.84706;fill:url(#linearGradient77);opacity:.7;stroke-width:.20344;stroke:#ffffff"/>
  <path id="rect6-7-0-3-8-91-1-7" d="m224.13 127.08s10.371-1.7453 20.412-6.2725c1.7846 4.6261 0.0595 0.17954 1.8408 4.7566-9.3587 4.185-21.088 6.3517-21.088 6.3517z" style="fill-opacity:.84706;fill:url(#linearGradient78);opacity:.7;stroke-width:.13133;stroke:#ffffff"/>
  <path id="rect6-7-0-3-8-91-1-28" d="m205.38 128.05s13.074-0.97825 26.058-5.4477c1.6854 5.9472 0.0533 0.2297 1.7401 6.1156-12.097 4.1229-26.905 5.4686-26.905 5.4686z" style="fill-opacity:.84706;fill:url(#linearGradient79);opacity:.7;stroke-width:.16373;stroke:#ffffff"/>
  <path id="rect6-7-0-3-8-91-1-72" d="m152.28 103.08s24.407 6.699 50.913 6.9916c-0.79191 11.907-0.0519 0.45223-0.80156 12.248-24.669-0.34769-52.468-7.5029-52.468-7.5029z" style="fill-opacity:.84706;fill:url(#linearGradient80);opacity:.7;stroke-opacity:.40678;stroke-width:.31607;stroke:#ffffff"/>
 </g>
</svg>
