<?xml version="1.0" encoding="UTF-8"?>
<svg id="svg1" width="1e3" height="600" version="1.1" viewBox="0 0 264.58 158.75" xml:space="preserve" xmlns="http://www.w3.org/2000/svg"><g id="curva-gris-completa-layer-1"><path id="curva-gris-grande" transform="translate(-13.827 16.81)" d="m55.362 9.1105c8.9043 81.586 176.22 132.89 159.45 45.069-0.49946 48.459-105.51 38.019-159.45-45.069z" style="fill:#eaeaea;stroke-width:.26458"/><path id="curva-gris-pequena" transform="translate(-13.827 16.81)" d="m181.23 129.82c-24.565-59.754-0.06227-109.98 26.316-94.08-37.622-38.807-67.429 48.496-26.316 94.08z" style="fill:#eaeaea;stroke-width:.37418"/><ellipse id="curva-gris-circulo" transform="translate(-13.827 16.81)" cx="212.5" cy="42.875" rx="5.5644" ry="4.5354" style="fill:#eaeaea;stroke-width:.26458"/></g><g id="curva-azul-completa-layer-2" transform="translate(-56.555 18.389)"><path id="curva-azul-grande" transform="translate(27.41 -13.531)" d="m55.362 9.1105c8.9043 81.586 176.22 132.89 159.45 45.069-0.49946 48.459-105.51 38.019-159.45-45.069z" style="fill:#a7c9ea;stroke-width:.26458"/><path id="curva-azul-pequena" transform="translate(27.41 -13.531)" d="m181.23 129.82c-24.565-59.754-0.06227-109.98 26.316-94.08-37.622-38.807-67.429 48.496-26.316 94.08z" style="fill:#a7c9ea;stroke-width:.37418"/><ellipse id="curva-azul-circulo" transform="translate(27.41 -13.531)" cx="212.5" cy="42.875" rx="5.5644" ry="4.5354" style="fill:#a7c9ea;stroke-width:.26458"/></g><path id="texto-dafel-layer-3" d="m22.601 72.512h11.826c2.8331 0 4.7467 0.26714 6.7882 0.80141 6.6481 1.4522 9.2672 8.3348 9.2672 12.928 0 7.654-5.4362 11.923-8.6422 13.118-1.986 0.74516-3.7398 1.1177-6.3091 1.1177h-12.93zm3.598 26.448h8.6033c1.5554 0 3.5443-0.26011 4.9192-0.78031 5.2228-1.9282 6.8953-7.8429 6.8953-11.833 0-2.7019-0.72164-8.674-6.7495-11.433-1.3749-0.57645-3.4055-0.86468-5.0442-0.86468h-8.6241zm53.831 1.5165h-4.1996l-4.7372-10.909h-11.324l-4.883 10.909h-2.3331l13.922-28.521zm-19.448-12.723h9.6575l-4.4913-10.543zm42.172-15.242v1.8137h-13.478v10.526h10.808v1.8137h-10.808v13.812h-3.058v-27.965zm22.127 0v1.8137h-12.445v9.9965h7.6326v1.8137h-7.6326v12.527h12.445v1.8137h-16.032v-27.965zm6.5162 0h3.5871l0.52917 26.151h12.328v1.8137h-16.444z" style="fill:#241f1f;stroke-width:3.1441" aria-label="DAFEL"/><text id="texto-consulting-layer-4" transform="scale(1.0099 .99024)" x="21.478451" y="125.46717" style="fill:#666666;font-family:'Bangla MN';font-size:20.663px;font-variant-caps:normal;font-variant-east-asian:normal;font-variant-ligatures:normal;font-variant-numeric:normal;stroke-width:.26719" xml:space="preserve"><tspan id="tspan5" x="21.478451" y="125.46717" style="fill:#666666;font-family:'Bangla MN';font-size:20.663px;font-variant-caps:normal;font-variant-east-asian:normal;font-variant-ligatures:normal;font-variant-numeric:normal;stroke-width:.26719">Consulting Services</tspan></text></svg>
